<svg xmlns="http://www.w3.org/2000/svg" version="1.1" viewBox="0.00 0.00 225.00 225.00" style="&#10;    background: #fff0;&#10;">
<path fill="#004f88" d="   M 190.73 98.44   A 77.69 34.42 0.0 0 1 113.04 132.86   A 77.69 34.42 0.0 0 1 35.35 98.44   A 77.69 34.42 0.0 0 1 113.04 64.02   A 77.69 34.42 0.0 0 1 190.73 98.44   Z   M 97.85 96.44   C 103.17 92.45 101.86 83.92 96.68 80.54   Q 93.93 78.75 88.32 78.80   Q 80.79 78.88 74.25 78.77   A 0.53 0.53 0.0 0 0 73.71 79.30   L 73.71 115.73   A 0.44 0.44 0.0 0 0 74.14 116.17   Q 82.58 116.28 90.69 116.11   C 100.20 115.91 104.97 106.48 99.58 98.74   Q 99.27 98.29 98.78 98.05   Q 98.20 97.78 97.77 97.29   A 0.58 0.58 0.0 0 1 97.85 96.44   Z   M 107.84 110.92   Q 105.53 112.32 103.05 111.11   Q 102.51 110.84 102.19 111.36   Q 100.22 114.66 96.70 116.71   A 0.51 0.51 0.0 0 0 96.68 117.58   C 105.33 123.18 119.22 119.08 119.29 107.14   Q 119.38 92.86 119.32 79.34   Q 119.32 78.83 118.81 78.83   L 110.46 78.84   Q 109.99 78.84 109.99 79.30   Q 110.01 91.34 110.00 103.88   C 110.00 106.84 110.31 109.41 107.84 110.92   Z   M 148.53 96.44   C 155.01 91.06 151.60 80.83 143.87 79.20   Q 140.88 78.57 134.49 78.79   Q 129.47 78.96 124.98 78.75   Q 124.25 78.72 124.25 79.45   L 124.26 115.80   A 0.42 0.42 0.0 0 0 124.69 116.22   Q 131.01 116.05 137.69 116.23   Q 143.62 116.38 146.68 114.90   C 153.12 111.79 154.56 101.55 148.58 97.43   Q 147.90 96.97 148.53 96.44   Z"><script xmlns=""/></path>
<path fill="#004f88" d="   M 133.75 87.46   A 0.32 0.32 0.0 0 1 134.08 87.14   L 139.49 87.15   A 2.93 2.84 0.1 0 1 142.41 90.00   L 142.41 90.20   A 2.93 2.84 0.1 0 1 139.47 93.03   L 134.06 93.02   A 0.32 0.32 0.0 0 1 133.75 92.70   L 133.75 87.46   Z"/>
<path fill="#004f88" d="   M 83.02 87.58   A 0.39 0.39 0.0 0 1 83.41 87.20   L 88.60 87.21   A 3.40 2.80 0.2 0 1 91.99 90.03   L 91.99 90.25   A 3.40 2.80 0.2 0 1 88.58 93.03   L 83.39 93.02   A 0.39 0.39 0.0 0 1 83.00 92.62   L 83.02 87.58   Z"/>
<path fill="#004f88" d="   M 83.00 101.87   A 0.42 0.42 0.0 0 1 83.43 101.45   L 89.36 101.46   A 2.93 2.76 0.1 0 1 92.28 104.23   L 92.28 105.03   A 2.93 2.76 0.1 0 1 89.34 107.78   L 83.41 107.77   A 0.42 0.42 0.0 0 1 83.00 107.35   L 83.00 101.87   Z"/>
<path fill="#004f88" d="   M 133.74 101.67   A 0.24 0.24 0.0 0 1 133.98 101.43   L 139.57 101.44   A 3.47 3.02 0.1 0 1 143.03 104.47   L 143.03 104.83   A 3.47 3.02 0.1 0 1 139.55 107.84   L 133.96 107.83   A 0.24 0.24 0.0 0 1 133.72 107.59   L 133.74 101.67   Z"/>
<path fill="#033c79" d="   M 130.27 155.21   L 130.29 161.51   Q 130.29 162.05 129.74 162.08   L 128.83 162.14   Q 128.24 162.17 128.24 161.57   L 128.32 155.81   A 1.01 0.99 20.2 0 0 127.94 155.01   L 127.27 154.46   A 0.63 0.62 45.5 0 1 127.27 153.48   L 127.85 153.02   Q 128.27 152.68 128.28 152.14   Q 128.31 149.27 131.57 149.03   Q 131.94 149.01 132.03 149.37   Q 132.49 151.20 130.76 151.50   Q 130.28 151.59 130.27 152.06   L 130.25 152.49   A 0.49 0.49 0.0 0 0 130.75 153.00   L 131.25 152.99   Q 132.20 152.96 132.05 153.91   Q 132.02 154.05 132.04 154.19   A 0.74 0.73 78.8 0 1 131.52 154.98   Q 131.18 155.08 130.88 154.88   Q 130.27 154.48 130.27 155.21   Z"/>
<path fill="#033c79" d="   M 62.55 153.50   C 64.49 152.00 67.19 152.93 67.24 155.46   Q 67.31 158.22 67.30 161.44   Q 67.30 162.04 66.70 162.09   L 65.83 162.15   Q 65.23 162.19 65.23 161.58   L 65.28 156.26   Q 65.29 154.98 64.01 154.80   Q 63.76 154.77 63.51 154.79   Q 62.00 154.92 62.00 156.44   L 62.02 161.45   Q 62.02 162.18 61.30 162.17   L 60.76 162.16   A 0.91 0.90 0.3 0 1 59.86 161.26   L 59.93 150.31   Q 59.93 149.54 60.70 149.51   L 61.25 149.50   Q 62.03 149.47 62.02 150.25   L 61.99 153.22   Q 61.98 153.94 62.55 153.50   Z"/>
<path fill="#033c79" d="   M 92.55 159.99   L 93.10 160.11   Q 93.66 160.24 93.78 160.80   Q 93.89 161.33 93.58 161.78   Q 93.29 162.20 92.78 162.17   Q 89.74 162.01 89.85 159.01   Q 90.03 154.40 89.87 150.21   A 0.68 0.67 -1.3 0 1 90.54 149.52   L 91.51 149.52   Q 92.00 149.52 92.00 150.01   L 92.00 159.30   Q 92.00 159.87 92.55 159.99   Z"/>
<path fill="#033c79" d="   M 158.47 159.98   L 159.30 160.31   Q 159.81 160.51 159.69 161.05   L 159.60 161.47   Q 159.47 162.06 158.86 162.10   Q 155.76 162.33 155.77 159.01   Q 155.78 154.45 155.73 150.23   Q 155.72 149.46 156.49 149.50   L 157.40 149.55   Q 157.97 149.58 157.97 150.15   L 157.96 159.22   Q 157.96 159.77 158.47 159.98   Z"/>
<path fill="#033c79" d="   M 161.80 151.24   A 0.20 0.19 88.4 0 1 161.61 151.05   L 161.58 150.54   A 1.10 1.10 0.0 0 1 162.83 149.40   Q 164.19 149.60 164.01 150.77   Q 163.94 151.28 163.42 151.27   L 161.80 151.24   Z"/>
<path fill="#033c79" d="   M 178.94 153.33   C 181.25 151.95 183.68 153.17 183.90 155.84   Q 184.10 158.39 183.97 161.52   Q 183.94 162.16 183.29 162.14   L 182.28 162.10   Q 181.74 162.07 181.74 161.53   L 181.69 155.97   A 1.18 1.18 0.0 0 0 180.47 154.81   L 180.02 154.83   Q 178.43 154.88 178.44 156.48   L 178.47 161.54   Q 178.48 162.06 177.96 162.08   L 176.66 162.15   Q 176.28 162.17 176.28 161.79   L 176.26 150.14   Q 176.26 149.53 176.86 149.53   L 178.00 149.52   A 0.48 0.47 0.6 0 1 178.48 150.00   L 178.41 153.02   Q 178.40 153.66 178.94 153.33   Z"/>
<path fill="#033c79" d="   M 37.68 155.71   L 37.71 159.27   Q 37.72 159.84 38.27 159.97   L 38.79 160.09   Q 39.38 160.22 39.32 160.81   L 39.24 161.66   Q 39.19 162.13 38.72 162.14   C 34.62 162.23 35.58 158.43 35.58 155.81   A 1.05 1.04 -69.4 0 0 35.23 155.03   L 34.59 154.46   Q 33.97 153.91 34.67 153.47   Q 36.01 152.61 35.50 151.18   Q 35.22 150.37 36.07 150.33   L 36.91 150.29   Q 37.85 150.24 37.72 151.17   L 37.58 152.23   A 0.67 0.66 4.1 0 0 38.24 152.99   Q 39.26 152.99 39.38 154.02   A 0.81 0.80 -10.8 0 1 38.78 154.89   L 38.19 155.04   Q 37.67 155.17 37.68 155.71   Z"/>
<path fill="#033c79" d="   M 189.32 152.98   Q 189.92 153.07 190.38 153.48   Q 190.79 153.84 190.50 154.31   Q 190.12 154.94 189.45 154.98   Q 188.77 155.02 188.77 155.70   L 188.79 159.23   A 0.73 0.73 0.0 0 0 189.28 159.92   L 189.95 160.14   A 0.83 0.83 0.0 0 1 190.50 161.07   L 190.40 161.63   A 0.62 0.60 1.8 0 1 189.86 162.12   C 185.82 162.53 186.79 158.11 186.74 155.81   A 1.05 1.04 -69.2 0 0 186.41 155.07   L 185.79 154.49   Q 185.13 153.86 185.90 153.38   Q 187.09 152.63 186.71 151.29   A 0.81 0.81 0.0 0 1 187.50 150.27   L 188.00 150.28   A 0.89 0.89 0.0 0 1 188.88 151.25   L 188.79 152.31   Q 188.74 152.90 189.32 152.98   Z"/>
<path fill="#033c79" d="   M 43.00 158.84   Q 43.47 160.25 44.94 160.43   Q 45.46 160.49 45.92 160.24   Q 46.69 159.81 47.54 159.75   Q 48.04 159.72 48.15 160.20   Q 48.39 161.22 47.43 161.70   C 40.89 164.95 38.54 155.36 43.21 153.13   C 46.48 151.57 48.80 154.25 48.88 157.57   A 0.63 0.62 90.0 0 1 48.25 158.21   L 43.50 158.16   A 0.52 0.52 0.0 0 0 43.00 158.84   Z   M 43.22 156.93   L 46.54 156.87   A 0.23 0.23 0.0 0 0 46.76 156.64   L 46.76 156.52   A 1.75 1.73 -1.0 0 0 44.98 154.82   L 44.70 154.82   A 1.75 1.73 -1.0 0 0 42.98 156.58   L 42.98 156.70   A 0.23 0.23 0.0 0 0 43.22 156.93   Z"/>
<path fill="#033c79" d="   M 55.75 160.19   L 56.42 159.84   Q 56.84 159.61 57.04 160.04   L 57.44 160.91   A 0.65 0.63 -26.8 0 1 57.16 161.73   Q 56.34 162.18 55.43 162.23   C 48.32 162.66 49.64 150.52 56.81 153.11   Q 57.68 153.43 57.33 154.28   L 57.17 154.69   Q 56.88 155.42 56.14 155.14   Q 53.32 154.03 52.93 156.86   Q 52.67 158.73 53.71 159.85   Q 54.60 160.81 55.75 160.19   Z"/>
<path fill="#033c79" d="   M 73.07 153.24   C 74.98 151.83 77.44 153.44 77.50 155.66   Q 77.57 158.48 77.62 161.53   Q 77.63 162.17 77.00 162.12   L 76.01 162.06   Q 75.49 162.03 75.50 161.51   L 75.57 156.63   Q 75.60 155.14 74.13 154.92   L 73.63 154.84   A 1.30 1.30 0.0 0 0 72.13 156.13   L 72.17 161.28   A 0.85 0.85 0.0 0 1 71.35 162.14   L 70.73 162.17   Q 70.01 162.19 70.01 161.48   L 70.01 153.52   Q 70.01 153.03 70.49 152.96   Q 71.32 152.84 72.10 153.29   Q 72.60 153.58 73.07 153.24   Z"/>
<path fill="#033c79" d="   M 87.4566 158.7703   A 3.46 3.46 0.0 0 1 84.0148 162.2484   L 83.4348 162.2515   A 3.46 3.46 0.0 0 1 79.9567 158.8096   L 79.9434 156.2697   A 3.46 3.46 0.0 0 1 83.3852 152.7916   L 83.9652 152.7885   A 3.46 3.46 0.0 0 1 87.4433 156.2304   L 87.4566 158.7703   Z   M 83.6602 160.4199   A 2.90 1.77 89.6 0 0 85.4100 157.5076   A 2.90 1.77 89.6 0 0 83.6198 154.6201   A 2.90 1.77 89.6 0 0 81.8700 157.5324   A 2.90 1.77 89.6 0 0 83.6602 160.4199   Z"/>
<path fill="#033c79" d="   M 98.7035 162.3894   A 4.87 3.99 90.9 0 1 94.7905 157.4573   A 4.87 3.99 90.9 0 1 98.8565 152.6506   A 4.87 3.99 90.9 0 1 102.7695 157.5827   A 4.87 3.99 90.9 0 1 98.7035 162.3894   Z   M 100.50 156.39   A 1.61 1.61 0.0 0 0 98.89 154.78   L 98.67 154.78   A 1.61 1.61 0.0 0 0 97.06 156.39   L 97.06 158.77   A 1.61 1.61 0.0 0 0 98.67 160.38   L 98.89 160.38   A 1.61 1.61 0.0 0 0 100.50 158.77   L 100.50 156.39   Z"/>
<path fill="#033c79" d="   M 109.40 161.23   Q 107.75 162.19 106.09 161.18   C 104.32 160.11 104.72 157.53 104.75 155.75   C 104.79 153.38 107.01 151.97 109.11 153.24   Q 109.48 153.47 109.86 153.27   Q 110.71 152.83 111.70 152.99   Q 112.19 153.06 112.16 153.55   Q 111.93 157.44 112.16 161.78   C 112.37 165.67 108.27 166.42 105.36 165.02   A 0.60 0.59 -50.8 0 1 105.26 164.01   L 105.84 163.58   Q 106.44 163.12 107.07 163.55   Q 107.99 164.19 109.06 163.64   Q 109.83 163.24 109.99 162.40   L 110.12 161.74   Q 110.33 160.69 109.40 161.23   Z   M 109.9803 156.1999   A 1.45 1.45 0.0 0 0 108.5028 154.7780   L 108.2428 154.7829   A 1.45 1.45 0.0 0 0 106.8209 156.2605   L 106.8597 158.2801   A 1.45 1.45 0.0 0 0 108.3372 159.7020   L 108.5972 159.6971   A 1.45 1.45 0.0 0 0 110.0191 158.2195   L 109.9803 156.1999   Z"/>
<path fill="#033c79" d="   M 141.0178 158.7566   A 3.49 3.49 0.0 0 1 137.5217 162.2405   L 136.9417 162.2395   A 3.49 3.49 0.0 0 1 133.4578 158.7434   L 133.4622 156.2634   A 3.49 3.49 0.0 0 1 136.9583 152.7795   L 137.5383 152.7805   A 3.49 3.49 0.0 0 1 141.0222 156.2766   L 141.0178 158.7566   Z   M 137.1994 160.4697   A 2.91 1.81 90.8 0 0 139.0498 157.5853   A 2.91 1.81 90.8 0 0 137.2806 154.6503   A 2.91 1.81 90.8 0 0 135.4302 157.5347   A 2.91 1.81 90.8 0 0 137.1994 160.4697   Z"/>
<path fill="#033c79" d="   M 145.78 155.98   Q 145.40 158.42 145.76 161.44   Q 145.82 162.01 145.25 162.04   L 144.20 162.09   Q 143.53 162.12 143.53 161.45   L 143.52 153.67   Q 143.52 152.97 144.22 152.98   Q 144.80 153.00 145.35 153.22   A 1.52 1.50 42.3 0 0 146.60 153.17   Q 147.99 152.46 149.67 153.02   Q 150.11 153.17 149.92 153.59   Q 149.15 155.31 147.57 154.84   A 1.41 1.41 0.0 0 0 145.78 155.98   Z"/>
<path fill="#033c79" d="   M 170.91 161.08   C 168.15 162.58 165.64 160.68 165.98 157.75   C 166.11 156.56 165.74 155.44 166.37 154.32   Q 167.71 151.92 170.75 153.16   Q 171.24 153.36 171.75 153.22   L 172.66 152.97   Q 173.46 152.75 173.48 153.58   Q 173.55 158.34 173.42 162.40   C 173.31 165.84 169.06 166.43 166.67 164.86   Q 166.22 164.57 166.52 164.12   Q 167.31 162.92 168.41 163.61   A 1.41 1.37 59.9 0 0 169.19 163.83   Q 171.40 163.82 171.43 161.39   Q 171.44 160.79 170.91 161.08   Z   M 169.7268 159.7799   A 2.56 1.71 89.4 0 0 171.4099 157.2021   A 2.56 1.71 89.4 0 0 169.6732 154.6601   A 2.56 1.71 89.4 0 0 167.9901 157.2379   A 2.56 1.71 89.4 0 0 169.7268 159.7799   Z"/>
<path fill="#033c79" d="   M 118.79 156.95   Q 119.20 155.19 119.85 153.45   Q 120.03 152.98 120.53 152.98   L 121.72 152.99   Q 122.23 152.99 122.05 153.47   L 117.99 164.30   Q 117.80 164.82 117.30 165.07   Q 116.46 165.48 115.51 165.59   Q 114.89 165.66 114.85 165.04   Q 114.80 164.51 114.96 164.02   Q 115.10 163.62 115.50 163.48   C 116.77 163.05 117.21 161.81 116.71 160.61   Q 115.19 156.94 114.00 153.45   Q 113.85 153.02 114.31 153.00   L 115.39 152.97   Q 116.00 152.94 116.19 153.52   L 117.37 157.02   Q 118.20 159.50 118.79 156.95   Z"/>
<rect fill="#033c79" x="161.72" y="153.01" width="2.06" height="9.08" rx="0.27"/>
</svg>