<?xml version="1.0" encoding="UTF-8" standalone="no"?>
<!DOCTYPE svg PUBLIC "-//W3C//DTD SVG 1.1//EN" "http://www.w3.org/Graphics/SVG/1.1/DTD/svg11.dtd">
<svg xmlns="http://www.w3.org/2000/svg" version="1.1" viewBox="0.00 0.00 500.00 160.00">
<path fill="#1b1e53" d="
  M 480.13 0.00
  L 486.22 0.00
  Q 497.57 2.77 500.00 14.02
  L 500.00 19.77
  Q 498.12 28.28 490.96 31.94
  C 475.55 39.81 459.43 22.12 468.98 7.44
  Q 472.66 1.79 480.13 0.00
  Z
  M 497.35 16.80
  A 14.18 14.18 0.0 0 0 483.17 2.62
  A 14.18 14.18 0.0 0 0 468.99 16.80
  A 14.18 14.18 0.0 0 0 483.17 30.98
  A 14.18 14.18 0.0 0 0 497.35 16.80
  Z"
/>
<path fill="#99cc33" d="
  M 132.73 14.22
  Q 129.75 19.65 127.09 25.02
  Q 126.72 25.79 126.34 25.02
  Q 123.90 20.10 121.34 15.68
  C 118.12 10.11 122.34 3.52 128.73 5.57
  C 132.12 6.65 134.56 10.86 132.73 14.22
  Z"
/>
<path fill="#1b1e53" d="
  M 485.31 18.28
  Q 488.45 21.31 490.93 26.04
  Q 491.05 26.26 490.80 26.26
  L 487.77 26.24
  A 0.35 0.34 -15.0 0 1 487.47 26.07
  Q 485.84 23.26 484.08 20.44
  C 482.87 18.50 481.35 18.38 479.33 18.33
  Q 478.66 18.31 478.66 18.98
  L 478.68 26.00
  Q 478.68 26.22 478.47 26.22
  L 476.25 26.26
  Q 475.72 26.27 475.72 25.74
  L 475.72 8.49
  Q 475.72 7.75 476.46 7.79
  C 479.63 7.97 482.77 7.68 485.92 8.24
  C 491.45 9.22 490.85 17.05 485.48 17.75
  Q 484.84 17.83 485.31 18.28
  Z
  M 478.63 10.77
  L 478.67 15.57
  A 0.38 0.38 0.0 0 0 479.05 15.94
  L 483.22 15.91
  A 3.51 2.60 -0.5 0 0 486.71 13.27
  L 486.71 12.91
  A 3.51 2.60 -0.5 0 0 483.18 10.35
  L 479.01 10.38
  A 0.38 0.38 0.0 0 0 478.63 10.77
  Z"
/>
<path fill="#99cc33" d="
  M 104.66 17.78
  C 107.04 14.28 112.93 12.93 115.54 17.11
  Q 118.89 22.49 122.09 27.29
  Q 122.46 27.85 121.80 27.83
  Q 116.57 27.69 110.92 27.72
  Q 105.85 27.75 104.08 23.30
  Q 102.91 20.36 104.66 17.78
  Z"
/>
<path fill="#99cc33" d="
  M 149.32 19.00
  C 151.19 23.66 146.98 27.75 142.46 27.71
  Q 136.90 27.67 131.98 27.86
  Q 130.82 27.91 131.46 26.94
  Q 134.54 22.35 137.11 18.20
  Q 138.51 15.94 139.94 15.22
  C 143.59 13.41 147.86 15.34 149.32 19.00
  Z"
/>
<path fill="#99cc33" d="
  M 103.65 39.39
  C 103.67 35.22 106.92 32.53 111.05 32.67
  Q 116.80 32.88 122.00 32.64
  A 0.23 0.22 15.6 0 1 122.20 32.99
  Q 118.45 38.61 115.10 43.52
  C 111.69 48.51 103.63 45.22 103.65 39.39
  Z"
/>
<path fill="#99cc33" d="
  M 142.53 32.68
  C 150.69 32.44 152.49 43.71 144.84 45.63
  Q 140.34 46.76 137.77 42.86
  Q 134.70 38.21 131.33 33.29
  Q 130.89 32.65 131.66 32.68
  Q 136.96 32.85 142.53 32.68
  Z"
/>
<path fill="#1b1e53" d="
  M 42.07 138.53
  Q 46.03 139.93 51.50 139.92
  Q 74.37 139.88 93.51 139.90
  Q 94.11 139.90 94.11 140.50
  L 94.12 155.51
  Q 94.12 156.16 93.47 156.16
  Q 65.04 156.24 34.30 156.13
  C 22.67 156.09 8.73 153.70 3.77 142.06
  Q 0.26 133.83 0.26 123.39
  Q 0.23 78.55 0.25 33.60
  Q 0.25 33.21 0.64 33.21
  L 35.21 33.21
  A 0.40 0.40 0.0 0 1 35.61 33.61
  Q 35.61 79.00 35.61 124.25
  C 35.61 129.70 36.31 136.49 42.07 138.53
  Z"
/>
<path fill="#1b1e53" d="
  M 429.40 61.55
  A 0.45 0.45 0.0 0 0 429.86 61.10
  L 429.84 33.58
  Q 429.84 33.20 430.21 33.20
  L 464.74 33.19
  Q 465.30 33.19 465.30 33.75
  L 465.30 155.96
  Q 465.30 156.48 464.77 156.48
  Q 436.39 156.46 408.56 156.47
  C 384.15 156.48 360.38 141.57 356.76 115.91
  C 352.42 85.21 377.00 62.26 406.22 61.55
  Q 417.40 61.28 429.40 61.55
  Z
  M 429.32 77.51
  C 412.23 77.66 394.10 82.62 390.03 100.53
  Q 387.74 110.63 390.88 120.31
  C 396.02 136.14 414.57 140.48 429.44 140.31
  Q 430.01 140.30 430.01 139.73
  L 430.00 78.18
  Q 430.00 77.50 429.32 77.51
  Z"
/>
<path fill="#1b1e53" d="
  M 196.08 108.78
  L 196.09 155.80
  A 0.39 0.38 0.0 0 1 195.70 156.18
  L 160.97 156.19
  A 0.36 0.36 0.0 0 1 160.61 155.83
  Q 160.64 111.05 160.60 66.31
  Q 160.59 58.94 161.92 53.20
  C 165.81 36.44 181.64 33.65 196.31 33.65
  Q 271.84 33.67 343.91 33.65
  A 0.32 0.31 -90.0 0 1 344.22 33.97
  L 344.22 47.77
  Q 344.22 48.31 343.68 48.31
  Q 279.06 48.32 211.36 48.33
  Q 205.21 48.34 201.25 50.33
  C 196.77 52.59 196.08 58.81 196.09 63.45
  Q 196.10 78.27 196.08 91.87
  A 0.40 0.39 0.7 0 0 196.48 92.27
  L 240.42 92.27
  A 0.41 0.40 0.0 0 1 240.83 92.67
  L 240.83 107.83
  Q 240.83 108.36 240.29 108.36
  L 196.52 108.34
  A 0.44 0.44 0.0 0 0 196.08 108.78
  Z"
/>
<path fill="#99cc33" d="
  M 121.99 44.04
  Q 124.51 39.70 126.40 35.74
  A 0.37 0.37 0.0 0 1 127.06 35.74
  Q 129.47 40.76 132.21 45.58
  C 134.19 49.06 133.31 53.17 129.71 54.92
  C 125.16 57.14 119.59 53.93 120.22 48.68
  Q 120.46 46.66 121.99 44.04
  Z"
/>
<rect fill="#1b1e53" x="108.96" y="62.94" width="35.46" height="93.24" rx="0.31"/>
<path fill="#1b1e53" d="
  M 289.05 121.50
  C 289.07 145.75 326.16 146.04 326.19 120.97
  Q 326.23 93.11 326.20 63.55
  Q 326.20 62.99 326.76 62.99
  L 343.24 62.99
  Q 343.80 62.99 343.80 63.55
  Q 343.75 91.94 343.86 119.31
  Q 343.90 127.62 342.42 132.52
  C 331.14 169.86 262.34 168.72 254.16 130.20
  Q 253.06 124.99 253.19 110.38
  Q 253.41 85.77 253.22 63.49
  A 0.49 0.49 0.0 0 1 253.71 63.00
  L 288.56 63.00
  A 0.49 0.49 0.0 0 1 289.05 63.49
  Q 289.03 91.15 289.05 121.50
  Z"
/>
</svg>
