<svg xmlns="http://www.w3.org/2000/svg" width="306" height="31" viewBox="0 0 306 31" style="&#10;"><defs><script xmlns=""/><clipPath id="pxyba"><path d="M156.004 26.814V6.127H23.767v20.687h132.237z"/></clipPath><clipPath id="pxybb"><path d="M171 6.82h12.772v19.916H171z"/></clipPath><clipPath id="pxybc"><path d="M171 31h134.746V0H171z"/></clipPath></defs><g><g><g><g><path fill="#333" d="M12.054 10.789a5.5 5.5 0 0 0-.585-.03c-.2 0-.386.01-.581.03l-.591-5.728c.388-.043.775-.061 1.172-.061.39 0 .78.018 1.161.058zm-2.331.296a5.12 5.12 0 0 0-.552.202c-.18.075-.356.165-.525.257L5.86 6.483a11.292 11.292 0 0 1 2.155-.923zm-1.945 1c-.144.124-.289.258-.421.397a5.455 5.455 0 0 0-.385.44L2.455 9.383c.238-.302.496-.599.772-.882.272-.28.556-.548.848-.798zM6.386 13.85c-.09.17-.171.347-.247.532a6.72 6.72 0 0 0-.188.55L.437 13.341a14.6 14.6 0 0 1 .384-1.119c.15-.363.311-.718.49-1.055zM5.76 15.98a5.51 5.51 0 0 0-.027.584c0 .2.007.393.027.585l-5.706.593C.017 17.353 0 16.96 0 16.563c0-.393.017-.78.054-1.166zm.278 2.357c.054.187.121.372.197.552.076.182.163.359.254.528l-5.021 2.786a13.896 13.896 0 0 1-.513-1.062c-.152-.364-.285-.73-.398-1.097zm1.054 1.932c.126.15.259.293.4.426.141.137.289.268.439.385l-3.552 4.534c-.306-.241-.6-.498-.89-.772a14.239 14.239 0 0 1-.796-.854zm1.704 1.401c.171.087.342.17.525.242.181.071.36.14.547.19L8.29 27.615c-.372-.107-.74-.234-1.1-.385a10.502 10.502 0 0 1-1.051-.488zm2.064.545c.194.02.382.026.582.026.194 0 .388-.006.573-.026l.59 5.73a11.95 11.95 0 0 1-2.312 0zm2.36-.275c.185-.057.37-.122.55-.201.184-.076.356-.16.527-.257l2.789 5.042c-.34.184-.695.358-1.058.512-.364.156-.73.29-1.103.403zm1.92-1.045a6.017 6.017 0 0 0 .812-.836l4.511 3.533a11.392 11.392 0 0 1-1.618 1.68zm1.393-1.744a5.224 5.224 0 0 0 .437-1.085l5.513 1.6c-.11.369-.24.744-.383 1.108-.15.367-.313.72-.492 1.058zm.64-2.046c.024-.196.032-.39.032-.587 0-.196-.008-.386-.031-.584l5.708-.593a11.77 11.77 0 0 1 0 2.345zm-.27-2.363a6.004 6.004 0 0 0-.455-1.074l5.02-2.785c.185.34.357.694.51 1.062.154.357.288.726.401 1.096zm-1.041-1.905a4.537 4.537 0 0 0-.398-.428 4.984 4.984 0 0 0-.437-.387l3.54-4.552c.3.24.596.504.88.776.285.275.55.562.797.857zm-1.733-1.421a6.262 6.262 0 0 0-.533-.249 6.101 6.101 0 0 0-.546-.19l1.58-5.535c.373.111.744.243 1.115.387.361.149.716.312 1.051.493z"/></g><g><g/><g clip-path="url(#pxyba)"><path fill="#333" d="M71.701 10.876H64.03v-4.12h20.684v4.12h-7.653v15.441H71.7zm48.233 11.86c4.805 0 6.292-2.819 6.548-6.09.273-3.52-1.69-6.644-6.548-6.595-4.805.053-6.134 3.162-6.134 6.694 0 3.172 1.485 5.99 6.134 5.99zm.063-16.609c7.812 0 12.418 4.219 12.418 10.207 0 5.818-4.687 10.476-12.417 10.48-7.812.002-12.409-4.662-12.409-10.48 0-5.988 4.597-10.207 12.408-10.207zm36.007.598v19.592h-6.212L139.48 13.824h-.07v12.493h-5.385V6.754h6.133l10.333 12.728h.066V6.754zM23.767 6.724h5.377v15.442h11.49v4.165H23.768zm39.043 11.98c0 5.453-4.295 8.11-11.046 8.11-6.789 0-11.002-2.628-11.002-8.11V6.724h5.347v11.978c-.004 3.013 1.779 4.181 5.655 4.181 3.962 0 5.687-1.184 5.687-4.18V6.724h5.359zm27.973-3.36h6.673c2.476 0 4.196-.269 4.196-2.302 0-1.948-1.72-2.294-4.196-2.294h-6.673zm-4.897-8.62h13.609c5.22-.315 7.456 1.839 7.534 4.982.062 2.37-1.576 4.323-4.163 5.13l.027.068c2.045.083 2.791.293 3.484 4.602.235 1.503.564 4.573 1.593 4.788h-3.986c-1.502.089-1.835-1.989-2.264-4.558-.338-2.08-.715-3.087-2.81-3.057h-8.054v7.615h-4.97zm22.085 19.57h.235a.588.588 0 0 1-.235 0z"/></g></g></g></g><g><g><g><g/><g clip-path="url(#pxybb)"><path fill="#333" d="M182.38 17.106c.91-1.121 1.367-2.488 1.367-4.103 0-1.97-.643-3.493-1.93-4.569-1.284-1.075-3.108-1.614-5.47-1.614H171v19.916h1.956V8.777h2.859c2.114 0 3.614.346 4.498 1.039.884.684 1.326 1.806 1.326 3.365 0 1.159-.396 2.106-1.188 2.845-.786.737-1.806 1.109-3.065 1.109h-1.874l5.882 9.6h2.379l-4.881-7.782c1.413-.118 2.575-.735 3.487-1.847"/></g></g><g><path fill="#333" d="M199.294 11.69h1.929v15.044h-1.929l.164-2.913c-.602 1.075-1.405 1.897-2.409 2.461-1.002.567-2.16.849-3.472.849-2.206 0-4.048-.756-5.524-2.271-1.469-1.514-2.203-3.374-2.203-5.581 0-2.26.748-4.145 2.243-5.648 1.504-1.516 3.387-2.271 5.649-2.271 1.212 0 2.315.292 3.307.876.995.583 1.806 1.409 2.437 2.475zm-1.67 11.829c1.132-1.222 1.696-2.69 1.696-4.404 0-1.595-.57-2.987-1.71-4.17-1.13-1.196-2.438-1.792-3.922-1.794-1.616 0-2.991.598-4.132 1.793-1.132 1.184-1.695 2.656-1.695 4.417 0 1.678.563 3.096 1.695 4.256 1.14 1.149 2.498 1.722 4.075 1.722 1.532 0 2.864-.606 3.994-1.82z"/></g><g><path fill="#fefefe" d="M217.546 6.882h1.957v19.916H217.6l.083-2.886c-.668 1.068-1.502 1.883-2.503 2.447-.995.557-2.112.836-3.351.836-2.171 0-3.997-.763-5.484-2.285-1.478-1.532-2.216-3.415-2.216-5.65 0-2.205.733-4.061 2.203-5.566 1.477-1.514 3.318-2.27 5.524-2.27 1.23 0 2.348.283 3.35.846 1.004.567 1.838 1.383 2.503 2.45a244.76 244.76 0 0 1-.122-2.244 27.3 27.3 0 0 1-.042-1.107zm-1.654 16.743c1.14-1.195 1.71-2.595 1.71-4.2 0-1.732-.557-3.2-1.669-4.404-1.113-1.205-2.453-1.806-4.021-1.806-1.577 0-2.936.583-4.075 1.751-1.132 1.158-1.697 2.571-1.697 4.24 0 1.76.565 3.232 1.697 4.42 1.139 1.184 2.516 1.776 4.13 1.776 1.486 0 2.794-.592 3.925-1.777z"/></g><g/><g clip-path="url(#pxybc)"><path fill="#fefefe" d="M224.008 9.926h1.956V6.82h-1.956z"/></g><g clip-path="url(#pxybc)"><path fill="#fefefe" d="M224.008 26.736h1.956V11.69h-1.956z"/></g><g clip-path="url(#pxybc)"><path fill="#fefefe" d="M242.503 13.519c1.53 1.532 2.298 3.37 2.298 5.513 0 2.253-.749 4.17-2.244 5.758-1.495 1.578-3.312 2.366-5.455 2.366-2.188 0-4.04-.775-5.552-2.324-1.515-1.551-2.273-3.42-2.273-5.61 0-2.197.758-4.078 2.273-5.647 1.521-1.577 3.325-2.367 5.413-2.367zm.287 5.513c0-1.704-.566-3.123-1.696-4.254-1.12-1.14-2.52-1.71-4.197-1.71-1.534 0-2.851.59-3.954 1.764-1.094 1.168-1.64 2.623-1.64 4.364 0 1.741.546 3.197 1.64 4.364 1.103 1.166 2.48 1.751 4.13 1.751 1.642 0 3.006-.589 4.09-1.765z"/></g><g clip-path="url(#pxybc)"><path fill="#fefefe" d="M283.806 27.833h-4.304c-.018-.156.234-4.252.495-7.826-2.061 1.23-4.893 1.482-6.155 1.532-.894 2.119-2.039 4.415-2.671 6.361h-4.51c-1.399-.519-5.612-2.403-7.74-4.133-3.08-2.504-3.353-3.618-5.69-7.117-1.867 1.543-3.032 9.89-3.476 11.395l-2.322-1.936.662-9.605.145-3.456c19.338 1.737 18.116-2.142 18.116-2.142-2.995-5.993-18.116-3.65-18.116-3.65V2.803s4.196-.798 8.932-.19l-.003-.003s7.398.583 10.492 3.396c0 0 6.29 4.757 1.77 7.737 0 0-1.425 1.943-13.123 2.592a72.624 72.624 0 0 0 3.792 3.503c2.712 2.028 6.04 4.118 7.94 3.872 6.229-14.84 15.766-18.914 15.766-18.914zm-3.526-11.2c.222-3.156.322-4.06.341-7.3-1.831 1.057-4.404 6.223-6.352 10.683.485.098 4.884-2.042 6.011-3.382z"/></g><g clip-path="url(#pxybc)"><path fill="#fefefe" d="M305.617 19.986c-.523-2.695-2.454-4.35-3.085-4.875-1.84-1.534-3.788-1.961-4.687-2.1a21.13 21.13 0 0 0 3.995-4.185c1.39-1.928 1.976-3.154 2.104-3.485.192-.496.492-1.166.275-1.931-.303-1.067-1.694-1.956-2.44-2.341-6.013-3.108-12.78 1.515-13.278 1.868l.052 5.41c.367-.745.832-1.182 1.713-2.097 1.913-1.989 4.18-2.5 5.267-2.758.348-.082 2.06-.36 4.149.186.085.029 2.012.682 1.357 2.214a14.527 14.527 0 0 1-2.295 3.274c-.912.977-1.77 1.62-2.223 1.936a14.514 14.514 0 0 1-3.688 1.855v2.446c1.461-.139 5.434-.32 8.337 2.187.675.584 1.74 1.504 1.826 2.859.112 1.788-1.533 3.507-1.673 3.647-.09.09-.16.156-.203.197-2.424 2.294-5.889 1.99-7.97 1.807a15.897 15.897 0 0 1-5.396-1.471v5.166c6.14 2.23 12.305 1.314 15.477-2.331.414-.475 3.137-3.604 2.386-7.478"/></g></g></g></g></svg>