<svg xmlns="http://www.w3.org/2000/svg" version="1.1" viewBox="0.00 0.00 503.00 109.00" style="&#10;    background: #ffffff00;&#10;">
<path fill="#003a78" d="   M 174.94 47.21   L 174.92 52.36   A 0.38 0.38 0.0 0 0 175.30 52.74   L 200.86 52.72   A 0.38 0.38 0.0 0 1 201.24 53.10   L 201.25 63.28   A 0.38 0.38 0.0 0 1 200.87 63.66   L 164.33 63.66   A 0.38 0.38 0.0 0 1 163.95 63.28   L 163.91 19.32   A 0.38 0.38 0.0 0 1 164.29 18.94   L 200.85 18.98   A 0.38 0.38 0.0 0 1 201.23 19.36   L 201.23 29.46   A 0.38 0.38 0.0 0 1 200.85 29.84   L 175.27 29.75   A 0.38 0.38 0.0 0 0 174.88 30.14   L 174.94 35.45   A 0.38 0.38 0.0 0 0 175.32 35.83   L 195.59 35.83   A 0.38 0.38 0.0 0 1 195.97 36.21   L 195.85 46.50   A 0.38 0.38 0.0 0 1 195.47 46.88   L 175.32 46.83   A 0.38 0.38 0.0 0 0 174.94 47.21   Z"/>
<path fill="#003a78" d="   M 403.19 42.83   Q 402.33 42.13 402.33 43.24   L 402.32 63.20   Q 402.32 63.73 401.80 63.72   L 391.25 63.71   A 0.47 0.46 0.0 0 1 390.78 63.25   L 390.77 19.48   A 0.33 0.32 19.6 0 1 391.30 19.23   L 416.23 39.32   Q 416.98 39.92 416.98 38.96   L 416.99 19.57   Q 416.99 18.95 417.61 18.95   L 428.58 18.98   Q 429.26 18.98 429.25 19.66   Q 429.14 40.57 429.44 61.50   Q 429.45 62.29 429.10 62.98   Q 428.81 63.55 428.31 63.15   L 403.19 42.83   Z"/>
<path fill="#003a78" d="   M 146.39 38.23   L 136.45 43.88   A 0.34 0.34 0.0 0 1 136.13 43.89   L 125.81 38.88   A 0.34 0.34 0.0 0 0 125.32 39.18   L 125.31 63.35   A 0.34 0.34 0.0 0 1 124.97 63.69   L 114.32 63.68   A 0.34 0.34 0.0 0 1 113.98 63.34   L 114.00 19.45   A 0.34 0.34 0.0 0 1 114.50 19.15   L 136.09 30.85   A 0.34 0.34 0.0 0 0 136.41 30.85   L 158.21 19.09   A 0.34 0.34 0.0 0 1 158.71 19.39   L 158.69 63.38   A 0.34 0.34 0.0 0 1 158.35 63.72   L 147.19 63.67   A 0.34 0.34 0.0 0 1 146.85 63.33   L 146.90 38.53   A 0.34 0.34 0.0 0 0 146.39 38.23   Z"/>
<path fill="#003a78" d="   M 235.91 49.05   A 0.35 0.35 0.0 0 0 235.66 48.45   L 225.83 48.49   A 0.30 0.30 0.0 0 1 225.52 48.19   L 225.50 39.20   Q 225.50 38.89 225.80 38.89   L 249.73 38.91   A 0.47 0.46 -2.0 0 1 250.20 39.34   C 251.38 54.78 236.91 65.28 222.37 63.36   C 202.13 60.68 193.96 36.47 211.13 23.67   C 220.74 16.51 234.31 17.67 243.44 25.53   A 0.99 0.98 -46.5 0 1 243.47 26.98   L 236.82 33.34   A 0.69 0.68 -44.1 0 1 235.86 33.33   C 229.38 26.71 218.01 28.10 213.91 36.50   C 209.95 44.63 216.37 52.54 224.81 53.20   Q 231.31 53.71 235.91 49.05   Z"/>
<path fill="#003a78" d="   M 261.40 56.82   L 259.14 63.32   A 0.57 0.57 0.0 0 1 258.60 63.70   L 247.91 63.67   A 0.57 0.57 0.0 0 1 247.38 62.90   L 264.08 19.34   A 0.57 0.57 0.0 0 1 264.61 18.97   L 275.96 18.98   A 0.57 0.57 0.0 0 1 276.50 19.35   L 292.77 62.97   A 0.57 0.57 0.0 0 1 292.23 63.74   L 281.73 63.64   A 0.57 0.57 0.0 0 1 281.20 63.28   L 278.67 56.79   A 0.57 0.57 0.0 0 0 278.14 56.43   L 261.94 56.44   A 0.57 0.57 0.0 0 0 261.40 56.82   Z   M 266.36 44.80   A 0.33 0.33 0.0 0 0 266.67 45.24   L 273.56 45.15   A 0.33 0.33 0.0 0 0 273.87 44.69   L 270.29 35.86   A 0.33 0.33 0.0 0 0 269.68 35.86   L 266.36 44.80   Z"/>
<path fill="#003a78" d="   M 327.92 38.30   L 317.93 43.84   A 0.43 0.43 0.0 0 1 317.53 43.85   L 307.62 38.94   A 0.43 0.43 0.0 0 0 307.00 39.32   L 307.04 63.31   A 0.43 0.43 0.0 0 1 306.61 63.74   L 295.68 63.65   A 0.43 0.43 0.0 0 1 295.25 63.22   L 295.27 19.50   A 0.43 0.43 0.0 0 1 295.90 19.12   L 317.57 30.84   A 0.43 0.43 0.0 0 0 317.97 30.84   L 339.44 19.21   A 0.43 0.43 0.0 0 1 340.07 19.59   L 340.12 63.29   A 0.43 0.43 0.0 0 1 339.69 63.72   L 328.91 63.78   A 0.43 0.43 0.0 0 1 328.48 63.35   L 328.56 38.68   A 0.43 0.43 0.0 0 0 327.92 38.30   Z"/>
<path fill="#003a78" d="   M 354.05 63.74   L 343.51 63.67   A 0.56 0.56 0.0 0 1 342.99 62.91   L 359.51 19.28   A 0.56 0.56 0.0 0 1 360.04 18.92   L 371.33 18.96   A 0.56 0.56 0.0 0 1 371.86 19.32   L 388.18 63.02   A 0.56 0.56 0.0 0 1 387.65 63.78   L 377.19 63.61   A 0.56 0.56 0.0 0 1 376.68 63.25   L 374.16 56.84   A 0.56 0.56 0.0 0 0 373.64 56.49   L 357.63 56.32   A 0.56 0.56 0.0 0 0 357.10 56.69   L 354.58 63.38   A 0.56 0.56 0.0 0 1 354.05 63.74   Z   M 369.24 45.18   A 0.31 0.31 0.0 0 0 369.53 44.75   L 365.81 35.71   A 0.31 0.31 0.0 0 0 365.23 35.72   L 361.97 44.80   A 0.31 0.31 0.0 0 0 362.26 45.22   L 369.24 45.18   Z"/>





<path fill="#747473" d="   M 480.37 75.96   Q 480.97 73.08 479.48 75.62   Q 477.24 79.44 474.13 83.90   Q 473.13 85.34 471.65 86.21   C 469.19 87.66 466.19 85.43 465.90 82.95   C 464.85 73.61 473.93 60.58 482.70 57.04   A 2.17 2.16 75.5 0 1 485.66 58.79   Q 485.95 61.14 484.76 63.70   Q 484.30 64.71 483.61 63.83   L 483.42 63.58   A 1.38 1.38 0.0 0 1 483.39 61.91   L 484.46 60.43   Q 484.78 59.99 484.54 59.51   Q 484.44 59.32 484.25 59.22   A 1.06 1.04 42.4 0 0 483.22 59.26   Q 477.73 62.67 474.88 67.22   C 471.97 71.87 468.40 77.55 468.91 83.28   A 0.95 0.94 -19.0 0 0 470.37 83.99   Q 471.54 83.23 472.43 82.12   Q 478.56 74.44 483.26 65.72   Q 484.13 64.10 485.78 64.90   Q 486.31 65.17 486.25 65.76   C 485.82 69.89 483.99 74.56 482.77 78.55   Q 482.43 79.67 482.81 80.83   Q 483.02 81.48 483.54 81.04   L 488.32 76.96   Q 488.78 76.57 488.94 77.15   Q 489.06 77.57 489.00 78.01   A 2.98 2.95 -18.9 0 1 488.14 79.74   Q 486.57 81.28 484.56 82.67   C 481.91 84.51 479.80 82.00 479.94 79.44   Q 480.04 77.54 480.37 75.96   Z"/>
<path fill="#747473" d="   M 448.82 80.33   L 452.94 78.17   A 0.38 0.38 0.0 0 1 453.42 78.27   Q 453.92 78.91 453.40 79.55   Q 452.73 80.39 451.80 80.82   Q 446.18 83.49 440.82 87.19   C 438.76 88.61 432.39 91.78 430.01 90.58   A 0.94 0.94 0.0 0 1 429.98 88.92   Q 435.19 86.08 440.45 83.77   C 442.50 82.86 443.98 81.10 444.93 79.13   Q 445.41 78.13 444.57 77.41   Q 443.13 76.19 441.21 75.77   Q 436.96 74.84 432.88 73.84   C 426.97 72.39 431.71 66.72 434.18 64.76   C 438.95 60.96 446.52 57.74 452.57 59.41   Q 456.99 60.62 456.44 66.00   A 1.13 1.13 0.0 0 1 455.39 67.01   Q 454.13 67.10 454.00 66.15   Q 453.94 65.70 454.28 65.39   Q 454.79 64.92 454.56 64.03   A 1.14 1.13 -84.3 0 0 453.96 63.29   C 448.20 60.42 440.13 64.05 435.18 67.60   Q 433.51 68.80 432.49 70.67   A 0.77 0.77 0.0 0 0 432.90 71.76   C 434.31 72.26 435.88 72.61 437.36 72.65   Q 442.03 72.78 446.84 74.34   C 449.46 75.19 449.49 77.78 448.40 79.92   Q 447.96 80.78 448.82 80.33   Z   M 434.71 87.93   Q 434.45 87.96 434.19 88.08   Q 434.10 88.12 434.20 88.13   Q 435.11 88.15 435.98 87.76   Q 437.01 87.29 435.88 87.33   Q 435.58 87.34 435.37 87.59   Q 435.11 87.89 434.71 87.93   Z"/>
<path fill="#747473" d="   M 387.14 84.82   Q 384.93 87.49 381.48 89.13   A 1.31 1.30 -25.0 0 1 379.74 88.50   C 378.68 86.25 379.49 83.96 380.31 81.80   Q 380.91 80.24 379.50 81.13   C 375.81 83.45 373.24 87.01 369.54 89.59   C 366.76 91.53 363.61 88.94 364.76 85.88   Q 365.59 83.65 366.68 81.49   Q 367.87 79.15 365.73 80.67   Q 362.66 82.85 359.91 85.55   C 357.83 87.59 351.85 92.75 349.86 88.01   Q 349.34 86.77 349.33 85.35   Q 349.33 84.75 348.89 85.17   Q 346.21 87.70 342.11 90.25   C 339.09 92.13 335.56 91.38 334.82 87.55   Q 334.66 86.71 334.05 87.30   C 331.26 89.94 325.32 93.86 322.97 88.85   Q 322.54 87.94 321.91 88.72   Q 319.14 92.10 315.94 91.36   A 1.35 1.32 -13.0 0 1 315.20 90.91   Q 313.75 89.15 314.01 86.76   Q 314.14 85.48 313.21 86.37   Q 309.23 90.17 304.73 92.84   C 299.98 95.65 294.45 92.65 296.56 86.68   C 297.96 82.70 301.02 80.03 304.53 77.98   Q 305.15 77.62 304.49 77.34   L 303.50 76.93   Q 302.93 76.69 302.90 76.07   C 302.73 71.22 312.53 62.98 317.27 64.27   A 2.17 2.17 0.0 0 1 318.87 66.44   Q 318.79 68.85 317.60 70.41   Q 317.09 71.08 316.48 70.51   Q 316.20 70.25 316.08 69.90   Q 315.81 69.13 316.47 68.64   Q 317.24 68.06 317.56 67.57   A 1.26 1.26 0.0 0 0 316.00 65.74   Q 309.68 68.48 306.62 74.63   Q 306.12 75.65 307.13 75.12   Q 310.81 73.20 314.09 72.21   A 0.78 0.77 -21.5 0 1 315.02 72.61   Q 315.23 73.04 315.12 73.47   Q 314.74 75.04 313.47 75.48   Q 306.55 77.88 301.88 84.65   Q 300.64 86.45 300.23 88.69   A 1.91 1.91 0.0 0 0 302.75 90.82   Q 307.82 89.01 312.75 84.36   Q 314.45 82.76 315.40 80.34   Q 318.32 72.93 324.12 65.71   A 2.10 2.08 34.9 0 1 326.83 65.24   Q 328.06 65.98 327.60 67.30   Q 324.79 75.46 318.52 84.27   Q 318.08 84.90 317.33 85.05   L 316.77 85.17   A 0.32 0.31 88.9 0 0 316.52 85.44   Q 316.29 87.54 316.70 89.39   Q 316.76 89.67 317.04 89.58   C 323.09 87.64 324.83 77.55 332.21 79.15   A 1.47 1.47 0.0 0 1 332.80 81.75   L 325.54 87.29   Q 323.69 88.71 325.99 89.07   C 327.93 89.38 331.70 86.63 333.29 85.28   Q 336.71 82.37 339.94 79.92   Q 342.32 78.12 345.45 78.64   A 1.25 1.24 -86.3 0 1 346.48 79.82   L 346.51 80.56   Q 346.56 81.70 345.43 81.54   L 343.52 81.28   Q 343.04 81.21 342.61 81.41   Q 338.59 83.23 337.23 87.51   Q 336.74 89.08 338.38 89.00   Q 339.37 88.95 340.25 88.49   Q 345.65 85.68 350.66 81.35   C 351.80 80.36 351.98 78.92 352.88 77.69   Q 354.41 75.59 352.02 76.61   Q 350.72 77.16 349.33 77.14   A 0.57 0.57 0.0 0 1 348.78 76.67   L 348.73 76.37   Q 348.56 75.46 349.44 75.15   Q 351.67 74.36 353.89 73.72   C 355.96 73.13 357.05 71.30 358.03 69.57   A 0.86 0.86 0.0 0 1 359.57 69.66   Q 360.12 71.02 359.39 72.07   Q 358.97 72.67 359.70 72.55   L 375.03 69.86   Q 376.29 69.64 376.70 70.85   L 376.89 71.42   Q 377.25 72.50 376.12 72.54   Q 367.36 72.91 358.16 75.43   Q 357.40 75.64 356.91 76.26   Q 353.52 80.57 351.17 85.89   A 1.28 1.28 0.0 0 0 352.66 87.65   Q 355.14 87.02 357.14 85.30   Q 362.18 80.97 367.12 76.87   A 1.27 1.27 0.0 0 1 369.10 77.37   L 370.41 80.57   Q 370.64 81.11 370.28 81.58   Q 368.57 83.79 367.23 86.29   Q 366.18 88.27 368.27 87.49   C 370.05 86.83 371.59 85.74 372.95 84.41   Q 376.70 80.76 380.86 77.79   A 1.61 1.61 0.0 0 1 383.08 78.13   C 384.30 79.73 382.77 82.36 382.30 84.07   Q 381.49 87.05 383.85 85.06   Q 386.26 83.04 388.57 81.84   Q 388.96 81.64 389.19 81.26   Q 391.59 77.32 396.22 76.52   Q 397.88 76.23 398.36 76.86   Q 400.39 79.53 397.04 79.35   C 396.36 79.31 395.84 79.08 395.13 79.36   Q 391.01 80.99 389.59 85.84   A 0.88 0.87 11.1 0 0 390.34 86.95   C 393.71 87.29 401.17 81.00 404.10 78.41   C 405.00 77.62 406.26 77.22 407.30 76.68   Q 409.58 75.47 410.77 77.53   Q 411.16 78.20 411.59 77.56   Q 412.04 76.90 412.71 76.78   A 1.26 1.26 0.0 0 1 414.07 78.58   Q 413.13 80.47 412.52 82.25   Q 411.44 85.36 413.85 83.12   Q 415.15 81.92 416.37 80.58   Q 417.01 79.88 417.25 80.79   Q 417.29 80.94 417.30 81.10   Q 417.38 82.06 416.83 82.84   Q 415.27 85.09 413.31 86.15   Q 409.51 88.18 409.91 83.69   Q 410.03 82.34 409.04 83.25   Q 406.28 85.76 403.45 88.00   C 401.52 89.53 399.02 88.89 398.99 86.05   Q 398.98 84.96 398.14 85.66   C 395.86 87.56 392.84 89.84 389.89 88.86   Q 387.30 88.00 387.56 84.99   Q 387.63 84.23 387.14 84.82   Z   M 318.7528 79.7399   A 6.50 0.79 121.2 0 0 322.7957 74.5892   A 6.50 0.79 121.2 0 0 325.4872 68.6201   A 6.50 0.79 121.2 0 0 321.4443 73.7708   A 6.50 0.79 121.2 0 0 318.7528 79.7399   Z   M 402.09 86.85   L 410.23 80.19   A 0.10 0.10 0.0 0 0 410.25 80.05   L 410.18 79.97   A 5.15 2.52 -39.3 0 0 404.60 81.28   L 404.28 81.55   A 5.15 2.52 -39.3 0 0 401.89 86.76   L 401.95 86.84   A 0.10 0.10 0.0 0 0 402.09 86.85   Z   M 326.58 84.61   L 330.68 81.37   A 0.14 0.14 0.0 0 0 330.70 81.18   L 330.68 81.15   A 2.56 1.03 -38.3 0 0 328.04 81.93   L 327.74 82.17   A 2.56 1.03 -38.3 0 0 326.37 84.56   L 326.39 84.59   A 0.14 0.14 0.0 0 0 326.58 84.61   Z"/>

<ellipse fill="#747473" cx="0.00" cy="0.00" transform="translate(385.18,70.56) rotate(76.0)" rx="1.74" ry="1.35"/>
<path fill="#747473" d="   M 330.90 76.94   Q 330.06 77.46 329.15 77.31   Q 328.97 77.28 328.80 77.20   Q 328.24 76.96 328.70 76.55   Q 330.61 74.88 331.44 72.61   A 1.30 1.29 -75.5 0 1 332.84 71.78   L 334.07 71.95   Q 334.96 72.08 334.62 72.91   Q 333.64 75.23 330.90 76.94   Z"/>





























</svg>