<svg xmlns="http://www.w3.org/2000/svg" id="uuid-fe3f506d-4e67-4db5-abb8-6b5b813e72d3" data-name="Capa 1" viewBox="0 0 341.19 93.83" style="&#10;    background: #7996af00;&#10;">
  <defs>
    <style>
      .uuid-88206543-9389-4514-a9d7-9d2fd19840f2 {
        fill: #8a8a8c;
      }

      .uuid-f5e24adf-1c7d-47a2-8092-9d8fd816df4f {
        fill: #cf5225;
      }
    </style>
  </defs>
  <path class="uuid-88206543-9389-4514-a9d7-9d2fd19840f2" d="m218.18,67.56l-.04-65.27c0-.18-.15-.33-.33-.33h-7.01c-.18,0-.33-.15-.33-.33h0s0-1.24,0-1.24c0-.18.15-.33.33-.33h0l16.7-.06c.18,0,.33.15.33.33h0s0,67.23,0,67.23c0,.18.15.33.33.33h0l7.13.05c.18,0,.33.15.33.33,0,0,0,0,0,.01l-.03,1.07c0,.18-.15.32-.33.32l-24.41-.03c-.18,0-.33-.14-.33-.33,0-.02,0-.04,0-.05l.14-.97c.02-.16.16-.28.32-.28l6.88-.12c.18,0,.32-.15.32-.33Z"/>
  <circle class="uuid-f5e24adf-1c7d-47a2-8092-9d8fd816df4f" cx="249.91" cy="9.13" r="6.09"/>
  <path class="uuid-88206543-9389-4514-a9d7-9d2fd19840f2" d="m280.11,30.66c0,10.71,0,21.35.03,31.91,0,3.09,1.73,5.39,5.01,5.33,3.37-.05,5.42-1.93,6.16-5.64.05-.22.18-.32.4-.31l1.43.07c.15,0,.22.08.19.23-.83,4.43-3.19,7.15-7.1,8.15-7.25,1.85-15.22-.83-15.25-9.56-.03-9.21-.03-19.23-.01-30.04,0-.55-.27-.82-.81-.81-1.45,0-2.76.03-3.94.06-2.59.08-2.77-.55-.55-1.88,6.37-3.83,10.76-9.35,13.17-16.55.1-.28.3-.43.59-.46.18-.01.36.07.54.26.1.12.16.27.16.42l-.05,15.62c0,.43.21.65.64.65h9.76c.42,0,.6.21.54.62l-.12.79c-.05.33-.24.5-.58.5h-9.57c-.43-.01-.64.21-.64.64Z"/>
  <path class="uuid-f5e24adf-1c7d-47a2-8092-9d8fd816df4f" d="m10.24,37.08c-.1,8.53-.06,14.94.11,19.22.16,3.9,2.11,5.6,5.85,5.11.68-.09,1.36-.62,2.04-.67.24-.02.48.09.63.28l4.48,5.66c.27.34.21.61-.18.82-4.27,2.23-9.65,3.87-14.45,2.41C1.68,67.76-.04,61.37,0,54.62c.09-13.54.09-25.95,0-37.24,0-.44.22-.66.66-.66l9.07.04c.32,0,.48.16.48.48v9.73c-.01.28.22.51.51.51h10.99c.15,0,.22.08.22.23v8.27c.01.21-.16.38-.37.38h0l-10.64.04c-.45,0-.68.23-.69.68Z"/>
  <path class="uuid-88206543-9389-4514-a9d7-9d2fd19840f2" d="m341.19,27.77c0,2.18-1.77,3.95-3.95,3.95h0c-2.18,0-3.95-1.77-3.95-3.95s1.77-3.95,3.95-3.95c2.18,0,3.95,1.77,3.95,3.95h0Zm-.51.22c.12-1.82-1.33-3.4-3.23-3.53-1.9-.12-3.54,1.26-3.66,3.08h0c-.12,1.82,1.33,3.4,3.23,3.53,1.9.12,3.54-1.26,3.66-3.08h0Z"/>
  <path class="uuid-88206543-9389-4514-a9d7-9d2fd19840f2" d="m336.69,29.02c-.09.16-.22.29-.38.39-.23.14-.52.07-.66-.16-.05-.08-.08-.18-.07-.28l.13-2.57c.03-.52.31-.76.83-.72l1.51.11c.49.04.86.47.83.96-.06.81-.08,1.6-.07,2.37.02.86-.17.91-.56.14-.21-.41-.51-.62-.9-.62-.27,0-.52.14-.66.38Zm.53-.94c.43.04.83-.38.88-.94h0c.05-.56-.26-1.04-.7-1.08-.43-.04-.83.38-.88.94h0c-.05.56.26,1.04.7,1.08Z"/>
  <path class="uuid-f5e24adf-1c7d-47a2-8092-9d8fd816df4f" d="m37.38,52.84c1.69,5.62,5.26,8.68,10.71,9.17,4.49.41,8.37-.82,11.64-3.69.57-.51,1.1-.46,1.57.14l3.54,4.52c.53.67.45,1.26-.23,1.77-1.84,1.39-3.68,2.78-5.83,3.6-6.68,2.55-13.08,2.65-19.21.32-10.98-4.19-14.85-16.5-11.55-27.06,3.59-11.54,14.14-15.66,25.42-13.84,12.17,1.95,15.68,13.04,15.1,23.84-.03.49-.29.73-.78.73l-29.99-.02c-.36,0-.49.17-.39.52Zm.14-7.49l21.61-.16c.1,0,.18-.08.18-.18v-.1c-.04-5.41-4.9-9.76-10.86-9.72h-.4c-5.96.04-10.76,4.46-10.72,9.88,0,0,0,0,0,0v.1c0,.1.08.18.18.18,0,0,0,0,.01,0Z"/>
  <path class="uuid-f5e24adf-1c7d-47a2-8092-9d8fd816df4f" d="m74.05,46.28c1.02-10.53,8.32-17.83,18.98-18.74,7.51-.64,13.73,1.4,18.68,6.12.13.13.14.33.03.47l-5.05,6.36c-.12.16-.25.17-.4.03-6.25-6-17.42-6.15-21.16,2.9-1.53,3.71-1.5,7.52.11,11.44,3.67,8.92,15.56,8.45,21.24,2.54.16-.17.31-.16.46.02l4.9,6.15c.11.14.11.27-.02.4-5.09,4.93-11.41,7.03-18.95,6.3-13.04-1.25-20.03-11.44-18.82-23.99Z"/>
  <path class="uuid-f5e24adf-1c7d-47a2-8092-9d8fd816df4f" d="m209.04,49.02c-.06,12.02-10.19,21.72-22.61,21.65h0c-12.43-.07-22.45-9.86-22.39-21.89.06-12.02,10.19-21.72,22.61-21.65,0,0,0,0,0,0,12.43.07,22.45,9.86,22.39,21.89Zm-10.78-2.04c-.04-5.92-4.87-10.69-10.79-10.64h-2.04c-5.92.06-10.69,4.89-10.64,10.81h0s.03,3.82.03,3.82c.04,5.92,4.87,10.69,10.79,10.64h2.04c5.92-.06,10.69-4.89,10.64-10.81h0s-.03-3.82-.03-3.82Z"/>
  <path class="uuid-f5e24adf-1c7d-47a2-8092-9d8fd816df4f" d="m127.92,34.36c0,.96.24,1.03.75.22,4.87-7.73,15.08-9,22.17-4.21,4.89,3.3,6.8,8.44,6.73,14.33-.11,9.22-.1,17.36.02,24.42,0,.41-.19.61-.6.61h-8.84c-.44,0-.66-.22-.66-.66.07-8.06.07-15.84-.02-23.33-.04-3.45-1.87-6.84-5.3-8.01-8.22-2.81-14.3,2.79-14.25,11.02.03,6.81.04,13.63.03,20.47,0,.34-.17.51-.52.51h-8.92c-.4,0-.6-.2-.6-.6V28.55c0-.39.2-.59.6-.59h8.84c.41.02.62.22.61.63l-.04,5.77Z"/>
  <path class="uuid-88206543-9389-4514-a9d7-9d2fd19840f2" d="m245.11,30l-6.26.07c-.19,0-.34-.14-.35-.33,0,0,0,0,0-.01v-1.28c-.02-.19.13-.34.32-.35,0,0,0,0,.01,0l15.69.04c.19,0,.34.15.34.34h0s-.02,39.04-.02,39.04c0,.19.15.34.34.34h0l5.89.09c.18,0,.33.16.33.34l-.02,1.07c0,.18-.16.33-.34.33l-22.22.03c-.18,0-.33-.15-.34-.33l-.03-1.17c0-.19.14-.34.33-.35,0,0,0,0,.01,0l6.32-.03c.19,0,.34-.15.34-.34V30.34c0-.19-.15-.34-.34-.34Z"/>
  <path class="uuid-88206543-9389-4514-a9d7-9d2fd19840f2" d="m305.97,46.22c-.19,6.17-.09,10.81.29,13.94,1,8.27,9.89,10.21,16.17,6.57,3.88-2.24,6.45-5.74,7.71-10.51.07-.26.32-.43.59-.39l1.21.17c.26.03.36.18.31.44-3.01,14.54-19.81,18.22-30.27,8.49-8.99-8.35-8.81-21.28-1.02-30.47,7.17-8.45,20.61-8.87,27.78-.46,2.63,3.09,4.1,6.84,4.41,11.25.02.33-.14.5-.47.5h-26.23c-.31.01-.47.16-.48.47Zm.2-2.27h15.98c.15,0,.27-.12.27-.27h0v-5.58c0-4.6-3.47-8.33-7.75-8.33h-1.02c-4.28,0-7.75,3.73-7.75,8.33v5.58c0,.15.12.27.27.27h0Z"/>
  <ellipse class="uuid-f5e24adf-1c7d-47a2-8092-9d8fd816df4f" cx="316.92" cy="76.14" rx="2.38" ry=".72" transform="translate(23.2 217.44) rotate(-39.2)"/>
  <path class="uuid-f5e24adf-1c7d-47a2-8092-9d8fd816df4f" d="m235.27,88.62v-8.99c-.01-.46.22-.71.68-.76l.42-.05c.32-.03.61.2.64.52,0,.02,0,.04,0,.06,0,2.65.02,5.53.07,8.64.13,7.35-10.47,7.43-10.61.95-.06-2.77-.1-5.81-.11-9.1,0-.57.28-.91.83-1.04l.34-.07c.41-.09.61.07.61.49v9.15c0,2.27,1.12,3.48,3.39,3.63.33.02.66,0,1-.07,1.83-.37,2.75-1.49,2.74-3.36Z"/>
  <rect class="uuid-f5e24adf-1c7d-47a2-8092-9d8fd816df4f" x="253.51" y="85.34" width="14.76" height="1.82" rx=".73" ry=".73" transform="translate(174.19 346.99) rotate(-89.9)"/>
  <path class="uuid-f5e24adf-1c7d-47a2-8092-9d8fd816df4f" d="m267.22,82.45v10.55c.01.37-.17.57-.54.6l-.44.05c-.49.05-.74-.17-.74-.67v-13.01c.01-.29.13-.53.38-.7,1.11-.75,2.33-.12,2.91.97,1.72,3.17,3.32,6.24,4.8,9.2.63,1.25.94,1.17.93-.23l-.06-9.57c0-.66.32-.92.96-.79l.41.09c.21.04.37.23.37.45l.02,13.36c0,.34-.23.63-.55.7-1.01.25-1.78-.1-2.31-1.06-1.78-3.23-3.58-6.6-5.4-10.12-.5-.97-.75-.91-.74.18Z"/>
  <path class="uuid-f5e24adf-1c7d-47a2-8092-9d8fd816df4f" d="m287.09,89.7h-5.13c-.38,0-.63.18-.75.53l-.9,2.7c-.17.49-.5.71-1.01.68l-.34-.02c-.27-.02-.47-.25-.46-.52,0-.04.01-.09.03-.13l4.21-11.73c1.23-3.44,2.47-3.44,3.71,0l4.17,11.63c.16.45,0,.71-.47.78l-.39.07c-.46.07-.77-.11-.94-.55l-1.14-3.03c-.1-.27-.3-.41-.59-.41Zm-5.1-1.93c-.06.17.03.36.2.42.03.01.07.02.11.02h4.39c.18,0,.33-.14.33-.32,0-.04,0-.07-.02-.11l-2.18-6.2c-.06-.17-.25-.26-.42-.2-.09.03-.16.11-.2.2l-2.21,6.19Z"/>
  <path class="uuid-f5e24adf-1c7d-47a2-8092-9d8fd816df4f" d="m299.85,80.69c-5.48-1.2-6.5,3.49-5.83,7.57.68,4.05,4.68,4.63,7.53,2.53.18-.14.45-.11.59.08.07.09.1.21.08.32l-.09.55c-.06.41-.31.76-.67.94-6.33,3.2-10.25-1.83-9.41-7.93.7-5.05,5.78-7.88,10.04-4.47.3.24.35.68.11.98-.02.03-.05.05-.07.08-.47.43-.85.45-1.15.06-.29-.37-.67-.61-1.13-.71Z"/>
  <rect class="uuid-f5e24adf-1c7d-47a2-8092-9d8fd816df4f" x="304.72" y="78.85" width="1.68" height="14.84" rx=".7" ry=".7"/>
  <path class="uuid-f5e24adf-1c7d-47a2-8092-9d8fd816df4f" d="m321.93,87.92c0,3.16-2.57,5.72-5.73,5.71h-.98c-3.16,0-5.72-2.57-5.71-5.73v-3.32c.01-3.16,2.58-5.72,5.74-5.71h.98c3.16,0,5.72,2.57,5.71,5.73v3.32Zm-1.8-3.38c0-2.24-1.81-4.06-4.05-4.07h-.72c-2.24,0-4.06,1.81-4.07,4.05v3.38c0,2.24,1.8,4.06,4.05,4.07h.72c2.24,0,4.06-1.81,4.07-4.05v-3.38Z"/>
  <rect class="uuid-f5e24adf-1c7d-47a2-8092-9d8fd816df4f" x="205.56" y="85.34" width="14.68" height="1.84" rx=".67" ry=".67" transform="translate(125.9 298.86) rotate(-89.8)"/>
  <path class="uuid-f5e24adf-1c7d-47a2-8092-9d8fd816df4f" d="m219.61,91.81l4.97-.12c.19,0,.34.14.35.33,0,0,0,0,0,0l.04,1.11c0,.19-.14.34-.33.35,0,0,0,0-.01,0l-6.7-.03c-.19,0-.34-.15-.34-.34h0s0-13.89,0-13.89c0-.19.15-.34.34-.34,0,0,0,0,.01,0l1.01.03c.18,0,.33.16.33.34v12.22c-.01.19.14.34.33.34,0,0,0,0,.01,0Z"/>
  <path class="uuid-f5e24adf-1c7d-47a2-8092-9d8fd816df4f" d="m254.56,83.12c.08-2.27-.3-2.35-1.15-.24l-4.15,10.38c-.18.46-.7.69-1.17.51-.24-.09-.42-.28-.51-.52l-4.14-10.74c-.65-1.68-.96-1.62-.95.18l.09,10.03c0,.57-.28.88-.85.92l-.27.02c-.32.03-.61-.22-.64-.55,0-.02,0-.03,0-.05l-.02-12.87c0-.84.42-1.25,1.26-1.24,1.23.01,2.03.52,2.4,1.52,1.09,2.93,2.29,6.03,3.6,9.3.3.75.6.75.91,0,1.26-3.06,2.52-6.14,3.77-9.23.6-1.48,1.61-1.96,3.04-1.45.29.11.44.33.44.64v13.46c0,.28-.22.5-.5.5h-.37c-.53-.01-.81-.28-.83-.82-.09-3.27-.07-6.52.04-9.75Z"/>
  <path class="uuid-f5e24adf-1c7d-47a2-8092-9d8fd816df4f" d="m333.95,89.93v-10.27c-.01-.49.24-.72.73-.69l.4.03c.46.03.69.27.69.74l.04,12.85c0,.39-.25.73-.62.84-1.04.3-1.84-.06-2.39-1.07-1.85-3.41-3.68-6.85-5.47-10.33-.41-.79-.6-.74-.59.15l.15,10.5c.01.49-.38.9-.88.91h-.34c-.38.02-.68-.28-.69-.66,0,0,0,0,0-.01v-12.91c-.01-.38.16-.65.5-.8,1.23-.55,2.32.06,2.9,1.17,1.69,3.24,3.39,6.46,5.11,9.66.31.57.46.53.46-.11Z"/>
</svg>